<?xml version="1.0" encoding="UTF-8"?><svg id="a" xmlns="http://www.w3.org/2000/svg" viewBox="0 0 2000 2000"><defs><style>.c{fill:#ce1e25;}</style></defs><path id="b" class="c" d="M1142.08,1008.51c-4.15,.03-6.66-5.22-7.56-8.74-4.16-16.34-7.53-32.88-10.83-49.42-.48-2.41,6.68-7.3,7.19-6.13,7.63,17.29,14.9,34.74,23.42,54.9-2.12,5.19-8.08,9.36-12.23,9.39h0Zm-24.34-93.51c-1.12,0-9.3-5.41-9.96-8.87-1.84-9.65-2.75-34.98-1.81-37.21,.84-2.01,3.41-5.04,4.88-5.04s3.6,2.83,4.02,4.57c2.97,12.08,6.04,24.19,7.95,36.46,.47,3.03-3.96,10.1-5.07,10.1Zm-12.94,117.47c-14.99,6.53-30.41,12.08-46.62,18.33-2.16-13.59-4.76-28.95-6.83-44.39-.24-1.78,2.04-4.63,3.89-5.86,13.03-8.67,26.26-17.04,40.87-26.44,1.84,3.87,4.85,8.37,6.17,13.32,3.12,11.65,5.93,23.45,7.75,35.36,.46,3-2.49,8.49-5.24,9.68Zm-24.63-148.69c3.15,14.76,6.27,29.2,9.21,43.67,.25,1.23-.32,3.13-1.21,4.03-13.09,13.32-27.61,24.61-45.91,32.66-8.09-47.53,.77-66.75,37.91-80.37Zm-50.74-3.64c-1.37-10.38-2.31-19.27-3.73-28.08-5.86-36.21-10.99-72.57-18.21-108.5-3.53-17.56,1.92-32.77,7-48.25,3.98-12.13,10.28-23.52,15.81-35.11,1-2.09,2.87-17.13,6.92-19.47,3.22,15.31,6.13,41.13,8.26,54.67,2.16,13.76,5.09,27.85,4.19,41.56-2.09,31.62,6.69,61.13,14.6,90.86,6.07,22.82,6.65,22.7-11.83,36.11-7,5.08-14.14,9.97-23.01,16.22h0Zm-17.56,199.95c-21.22,13.85-41.98,28.42-62.94,42.65-2.94,1.99-5.95,3.87-8.3,5.4,0-17.74-.28-34.46,.23-51.16,.11-3.54,2.17-8.22,4.9-10.29,19.31-14.66,39-28.83,58.65-43.04,7.29-5.26,12.06-6.14,18.01,3.93,12.34,20.89,9.31,39.54-10.54,52.51h0Zm-78.27-138.45c-1.4,4.9-6.01,9.75-10.41,12.74-8.4,5.7-17.71,10.04-27.67,15.5,6.62-35.92,12.01-70.47,19.55-104.54,7.58-34.24,17.65-67.91,26.01-101.99,8.33-33.96,22.6-98.6,23.79-102.18,1.19-3.58,1.03-7.54,2.14-7.35,3.77,27.03,13.12,61.52,3.98,89.47-3.93,12.03-3.61,25.42-5.73,38.1-4.64,27.78-12.09,55.36-13.72,83.3-1.58,27.12-10.72,51.65-17.95,76.95h0Zm-18.44,96.94c-.55,2.31-1.93,4.98-3.78,6.32-12.37,9-24.97,17.68-40.29,28.43,.99-9.99,.46-17.76,2.71-24.62,4.1-12.51,9.58-24.59,15.1-36.57,1.37-2.98,4.74-6.12,7.83-7.04,8.63-2.57,17.59-4.01,27.3-6.09-2.94,13.25-5.74,26.44-8.87,39.56Zm-56.73,130.04c-4.09-40.14,8.24-58.72,38.07-71.07,4.32,28.97-8.23,52.79-38.07,71.07Zm110.23-242.68c6.02-34.98,17.2-95.4,17.26-100.24,.06-4.84,.45-8.23,1.83-8.38,3.1,10.41,8.61,28.75,11.55,39.21,.99,3.53,1.45,7.23,1.91,10.88,3.92,30.98-.99,40.4-32.54,58.53h0Zm7.02,32.65c7.53-5.22,14.43-11.36,21.68-17.01,7.47-5.84,11.42-4.98,13.13,3.94,2.07,10.8,3.08,21.82,4.01,32.8,.22,2.54-.95,6.44-2.84,7.72-18.43,12.5-37.14,24.59-55.81,36.73-.81,.53-2.05,.41-6.12,1.11,5.47-24.33,3.06-49.42,25.95-65.28h0Zm11.84-376.89c9.15-24.33,19.3-48.29,29.1-72.38,.65-1.59,3.07-14.03,4.08-13.97,1.87,13.69,5.41,36.92,6.9,50.65,1.74,16.01,4.15,32.12,3.81,48.13-.19,8.96-5.05,17.93-8.36,26.69-7.5,19.84-15.36,39.54-24.05,61.83-2.94-3.13-4.06-5.94-4.47-8.17-4.16-22.33-8.89-44.61-11.65-67.13-1.01-8.27,1.62-17.58,4.65-25.65Zm53.92-119.36s16.45,77.79,14.73,81.85c-1.99,4.7-6.73,21.62-9.66,20.31-2.93-1.31-7-97.18-7-97.18l1.93-4.98Zm17.92,134.63c9.79,38.77,35.11,178.24,44.92,217.01,2.4,9.47,1.6,16.79-12.3,18.72-8.31-47.9-16.61-95.67-24.9-143.44-1.34-7.56-12.32-83.03-10.8-83.39-.15-6.93,2.25-12.13,3.07-8.9h0Zm-259.39,537.6c-.17-26.07,.29-50.2,26.38-63.48,9,26.63,2.47,43.22-26.38,63.48Zm-14.89,81.27c-7.37-22.03,2.54-38.58,27.36-51.34,3.89,26.83-3.28,40.28-27.36,51.34Zm-48.24-39.02c-78.67,63.96-151.9,133.91-223.07,206.05-6.97,7.07-13.5,14.57-20.41,21.7-1.56,1.62-3.85,2.54-5.8,3.79-1.43,0-3.17-1.27-3.17-2.7s16.32-23.5,26.19-33.57c53.6-54.71,107.47-109.18,161.89-163.07,16.96-16.8,36.22-31.26,53.92-47.34,9.13-8.29,17.16-17.79,26.96-28.08,3.75,20.03-2.75,32.04-16.51,43.23Zm-17.85,83.44c-44.09,33.22-88.47,66.17-130.98,101.35-23.14,19.15-42.75,42.56-63.95,64.05-2.83,2.87-6.82,7.22-8.98,7.22s-3.87-6.79-.41-10.5c14.04-15.04,27.4-30.9,42.75-44.49,54.86-48.56,110.41-96.33,165.77-144.33,2.65-2.3,5.94-3.88,11.21-7.25-3.13,14.26-4.21,25.52-15.41,33.96Zm946.77-491.68c-5.82-1.83-21.94,6.43-32.53,10.61-36.55,14.43-72.92,29.31-109.37,43.98-13.26,5.34-27.11,9.5-39.75,16.03-50.62,26.15-101.16,52.1-156.15,68.56-18.93,5.67-38.83,11.75-52.82,27.81-10.74,12.33-24.78,19.47-39.78,24.9-16.19,5.85-30.92,13.7-42.15,27.22-1.72,2.07-4.61,3.15-9.56,6.4-6.65-18.59-13.1-35.59-18.54-52.91-.77-2.45,2.53-7.61,5.31-9.54,55-38.14,110.83-74.96,171.51-103.66,27.61-13.06,55.35-25.85,78.66-46.13,2.35-2.05,4.52-6.46,4.97-8.53s-6.74-2.55-9.65-1.87c-11.41,2.66-23.19,4.86-33.81,9.54-27.83,12.25-55.39,25.19-82.57,38.8-35.48,17.77-70.56,36.36-105.69,54.81-9.02,4.74-17.65,10.21-26.38,15.49-4.76,2.88-9.34,6.07-14.86,9.68-1.92-13.83-2.96-25.94-5.46-37.74-1.8-8.47,1.04-12.67,8.29-16.5,30.22-15.98,61.55-30.39,89.95-49.19,53.55-35.47,109.98-65.35,167.33-93.82,10.72-5.32,28.09-14.17,31.44-18.09,3.35-3.92,.89-11.46-4.34-12.14-5.23-.69-22.36,3.72-31.85,7.48-30.27,12-60.81,23.5-90.31,37.21-21.28,9.89-40.43,24.34-61.66,34.37-38.59,18.23-77.53,35.58-111.7,61.76-1.49,1.14-3.95,1.02-7.66,1.89-4.7-29.71-8.39-58.77-14.08-87.43-5.6-28.25-9.4-57.19-27.04-81.86-4.71-6.59-6.01-16.26-7.01-24.74-2.25-18.91-7.99-36.16-10.15-55.09-1.57-13.83,1.29-18.98,2.38-25.74,4.2-26.03,6.7-21.68,13.33-47.26,2.94-11.36,11-22.22,2.9-35.92-9.04,17.83-16.23,31.58-26.47,54.37-1.73-11.76-2.09-67.97-2.49-78.37-.55-14.47-3.54-30.6,1.54-43.17,11.51-28.46,27.81-54.95,41.19-82.71,6.82-14.16,11.78-29.25,16.96-44.13,1.03-2.96,4.16-14.14-1.58-12.67-5.74,1.47-69.45,121.23-105.94,182.31-.59-.24-14.91,33.72-16.23,37.47-17.3,49.22-35.78,90.26-51.86,139.87-7.65,23.59-9.53,49-15.91,73.08-10.63,40.1-23.3,79.65-34.14,119.69-9.66,35.68-18.14,71.69-26.86,107.62-6.85,28.19-13.17,56.51-19.95,84.72-2.1,8.75-20.17,25.62-31.11,29.58-.31-.94-1.03-1.96-.85-2.78,9.97-45.53,20.17-91.02,30.01-136.58,7.03-32.51,18.51-63.42,29.81-94.66,16.76-46.35,28.34-94.55,43.38-141.56,10.99-34.35,23.8-68.12,36.13-102.02,10.4-28.59,21.25-57.03,32.01-85.5,1.89-5,17.1-40.86,19.81-47,20.53-46.61,46.34-91.21,53.69-142.74,.91-6.37,1.85-14.67,.57-17.75-1.28-3.08-1.21-4.61-4.6-3.85-3.39,.76-13.57,7.64-16.49,13.42-9.89,19.53-17.87,40.01-26.81,60.02-17.28,38.71-35.8,76.91-51.71,116.17-12.23,30.17-20.56,61.89-31.86,92.46-11.26,30.48-24.03,60.41-36.19,90.56-2.18,5.4-5.64,10.51-6.73,16.1-4.05,20.8-7.05,41.8-11.04,62.61-3.59,18.73-9.33,29.93-16.49,48.66-4.22,11.03-5.83,16.46-6.53,22.14-1.73,14.02-2.94,22.18-9.16,34.73-11.72,23.65-22.61,47.74-33.18,71.94-3.31,7.59-6.73,16.27-6.22,24.2,2.06,32.2-6,62.95-12.22,93.87-2.64,13.13-32.08,67.75-40.15,75.76-15.44,15.34-30.63,30.92-45.98,46.36-17.42,17.52-36.23,33.88-51.92,52.84-12.45,15.05-26.49,26.97-42.36,37.96-10.82,7.49-19.64,18.26-28.19,28.53-11.87,14.25-19.9,31.28-36.38,42.2-11.72,7.76-21.92,18.59-30.88,29.61-25.57,31.46-50.51,63.46-75.04,95.74-17.53,23.05-35.28,46.11-50.66,70.58-21.45,34.14-41.55,69.21-60.48,104.81-4.6,8.65-4.71,21.43-2.54,31.36,1.64,7.54,18.78,12.48,28.1,11.42,11.44-1.3,20-4.82,27.26-13.95,13.42-16.87,27.28-33.45,41.94-49.23,13.74-14.8,29.44-27.79,43.03-42.7,15.37-16.87,27.46-37.15,44.35-52.12,34.49-30.57,70.45-59.64,107.32-87.32,30.06-22.57,59.69-32.22,84.52-61.81,.49-.59,7.35-6.61,9.88-7.14-1.93,7.57-4.14,14.07-5.2,20.76-5.65,35.56-8.88,71.56-16.34,106.78-9.57,45.21-13.5,59.66-20.41,133.95-3.92,42.16-4.76,85.67-4.21,127.96,.12,9.12-3.73,27.01,.6,28.51,4.32,1.51,30.31-5.75,33.29-6.75,2.98-1,8.76-6.41,8.72-13.07-.19-27.5-.58-55.01,.04-82.5,1.08-47.98,3.25-94.51,10.95-141.88,3.6-22.14,8.35-36.27,10.82-53.16,5.63-38.53,12.25-76.91,18.55-115.34,1.59-9.71,.34-22.28,5.97-28.4,9.74-10.58,25.4-19.15,38.8-28.15,.42,3.62-15.12,87.76-20.23,128.04-3.97,31.32-4.84,63.03-6.9,94.59-2.36,36.27-4.18,72.58-6.86,108.83-2.38,32.21-6.66,64.32-7.98,96.57-.5,12.46,3.63,38.19,7.92,39.39,4.29,1.2,14.34-7.24,19.1-11.53,3.55-3.21,6.75-8.48,7.24-13.14,3.86-36.17,7.34-72.38,10.32-108.64,3.38-41.04,6-82.15,9.15-123.21,2.57-33.51,4.2-67.16,8.5-100.45,4.46-34.58,14.96-68.66,16.52-103.25,1.19-26.42,14.09-41.88,31.5-56.91,3.41-2.94,14.56-11.58,15.46-11.08-1.69,10.88-4.97,27.05-6.17,37.98-2.29,20.9-3.72,41.9-6.11,62.79-6.8,59.52-15.24,118.89-20.41,178.54-3.52,40.62-2.68,81.62-3.69,122.45-.99,40.02-3.85,75.99-5.14,116-.3,9.25-5.45,32.77-2.1,34.19,3.35,1.41,15.55-7.19,22.15-10.14,6.78-3.02,9.71-7.39,9.2-15.53-.66-10.55,.54-21.27,1.5-31.86,2.43-26.62,5.9-53.16,7.61-79.83,1.74-27.18,1.16-54.5,2.88-81.68,2.15-34.17,5.59-68.26,8.5-102.38,3.39-39.8,6.45-79.33,17.99-118.25,8.72-29.4,11.03-60.77,15.3-91.39,2.17-15.61,2.05-31.52,3.66-47.23,.4-3.92,2.47-9.28,5.49-11.09,25.89-15.43,51.65-31.24,78.52-44.81,18.38-9.29,19.14-7.77,23.51,11.62,.16,.72,.41,1.41,.61,2.12,10.32,37.78,20.77,75.52,30.91,113.34,10.63,39.65,23.37,78.94,30.83,119.2,9.99,53.85,29.15,104.42,48.11,155.21,16.3,43.66,33.84,86.85,50.63,130.33,3.21,8.31,5.23,20.78,8.37,21.29,3.13,.5,13.33-7.94,11.88-17.9-3.65-25.05-5.82-50.44-11.36-75.07-5.54-24.65-13.99-48.7-21.98-72.74-18.67-56.15-39.56-111.62-56.3-168.33-16-54.22-26.95-109.91-41.98-164.43-7.57-27.46-13.19-54.83-13.79-83.23-.05-2.38,.48-6.12,1.99-6.96,11.61-6.42,21.87-16.35,36.36-15.95,4.05,17.38,7.37,34.1,11.87,50.5,10.14,36.96,20.51,73.87,31.47,110.59,7.49,25.11,16.58,49.74,24.13,74.83,7.04,23.4,11.88,47.5,19.72,70.61,8.32,24.53,19.68,48.02,28.54,72.39,12.38,34.08,22.4,69.06,35.82,102.7,11.05,27.68,33.17,77.45,39.08,81.95,5.92,4.5,20.79-24.83,13.01-42.06-2.56-5.66-4.34-11.68-6.38-17.56-9.02-25.99-17.4-52.22-27.16-77.93-11.97-31.51-27.05-61.95-37.29-93.97-20.36-63.7-38.69-128.06-57.14-192.36-11.74-40.92-21.99-82.26-33.35-123.29-2.89-10.43-7.5-20.39-11.25-30.38,11.76-7.02,14.77-6.03,18.22,5.32,12.2,40.08,23.82,80.36,36.73,120.21,12.44,38.4,26.44,76.3,39.34,114.57,9.96,29.54,17.64,59.95,29.27,88.79,18.82,46.7,39.89,92.5,60.31,138.54,14.59,32.9,26.63,59.08,41.68,91.78,1.22,2.64,6.22,12.94,9.18,13.28,2.96,.33,5.26-6.43,7.82-11.11,7.49-13.7,7.38-18.91,1.45-33.37-17.28-42.12-31.86-85.36-49.56-127.3-9.67-22.92-86.65-192.07-95.23-260.46-2.31-18.43-4.25-38.95-13.59-54.04-19.41-31.35-26.83-65.59-34.16-100.43-1.42-6.75,.49-10.66,6.94-13.99,20.6-10.61,40.82-21.95,61.17-33.05,65.47-35.73,130.26-72.79,196.6-106.82,57.41-29.45,116.69-55.23,174.85-83.23,10.46-5.04,19.65-12.8,29.11-19.75,1.8-1.33,6.75-8.71,.93-10.55"/></svg>