<?xml version="1.0" encoding="UTF-8"?><svg id="a" xmlns="http://www.w3.org/2000/svg" viewBox="0 0 2000 2000"><defs><style>.d{fill:#ea3251;}.e{fill:#0b3c6b;}</style></defs><path id="b" class="d" d="M1886.45,829.48l-106.12,.98c-10.83,0-14.56,4.89-14.6,15.68,0,.13,0,.27-.02,.41l-3.88,43.47c0,6.9-7.68,8.67-12.66,3.91-51.41-49.14-118.07-80.06-195.2-80.06-111.73,0-211.48,67.63-258.46,160.08-3.03,5.96-11.48,5.95-14.63,.05-50.31-94.14-153.24-159.15-275.53-159.15-129.46,0-239.35,68.68-285.6,171.95-2.91,6.5-12.12,6.41-14.94-.13-43.61-101.03-147.31-168.89-259.27-169.87-76.77-.67-151.88,30.27-201.08,73.86-5.1,4.52-13.11,1.06-13.11-5.77v-256.56c0-11.31-9.14-20.48-20.42-20.48H117.42c-11.28,0-20.42,9.17-20.42,20.48v715.75c0,11.31,9.14,20.48,20.42,20.48h93.51c11.28,0,16.53-7.24,16.53-18.55l3.89-42.04c0-5.61,6.67-8.48,10.75-4.65,51.82,48.65,122.8,77.94,200.52,77.94,118.56,0,220.39-72.56,264.62-172.05,2.72-6.11,11.36-6.2,14.19-.14,47.19,101.23,156,177.08,283.92,177.08,27.79,0,110.99-7.81,138.25-19.53,.28-.12,79.8-29.4,110.4-63.69,2.8-3.14,2.55-7.96-.49-10.86l-5.68-5.41c-.42-.4-.78-.83-1.09-1.29-.2-.3-.43-.6-.69-.85l-60.58-57.52c-3.17-3.03-12.21-3.78-15.58-.98-32.38,26.98-84.97,46.87-145.06,46.87-98.67,0-180.11-49.8-181.09-115.22-.03-2.28,3.89-6.83,6.82-7.81h412.13c3.84,0,7.14,2.73,7.88,6.51,4.51,23.06,11.83,45.11,21.6,65.81,.31,.66,.72,1.26,1.22,1.78,.81,.84,1.53,1.86,2.1,3.03,46.5,93.79,146.25,159.15,258.97,159.15,77.14,0,149.15-34.83,200.56-83.97,4.98-4.76,6.82,.91,6.82,7.81l4.83,41.7c.02,.19,.03,.39,.04,.58,.14,10.76,7.69,17.28,18.5,17.28h98.33c10.9,0,19.47-1.76,19.47-12.69v-506.75c0-10.93-5.65-16.6-16.55-16.6ZM413.42,1263c-94.63,0-172.32-76.1-172.32-166.96s79.64-162.08,174.27-162.08,168.43,72.19,168.43,163.06-75.74,165.99-170.38,165.99Zm750.63-236.29c0,5.37-6.33,11.72-11.68,11.72h-296.94c-5.9,0-9.9-1.49-8.61-10.16,7.63-51.35,65.07-104.08,158.54-104.08,86.57,0,143.12,43.94,158.69,102.52h0Zm422.54,244.1c-99.2,0-179.14-77.91-179.14-172.82s82.86-168.92,182.06-168.92,179.14,72.06,179.14,166.96-82.86,174.78-182.06,174.78Z"/><g id="c"><path class="e" d="M877.82,1678.95c8.31-3.47,14.6-4.88,23.37-4.88,3.84,0,15.58,0,22.39,1.95,3.88,1.11,10.71,1.95,19.47,8.79,6.96,5.43,8.59,8.32,13.63,12.69,7.61,6.61,13.68,9.76,40.89,9.76,16.55,0,26.58,5.16,31.15,0,15.58-17.58,38.58-13.16,49.65-3.91,5.84,4.88,7.1,9.07,14.6,16.6,8.76,8.79,17.99,5.5,25.31,0,3.89-2.93,9.74-8.79,9.74-8.79-14.6-6.83-19.47-19.53-19.47-19.53,0,0,4.49-2.15,6.82-2.93,2.92-.98,3.98,.66,4.87,.98,13.63,4.88,29.21,10.74,43.81,16.6,4.87,1.95,10.72,1.65,15.58,1.95,47.71,2.93,60.35,3.11,79.83,4.88,10.71,.98,15.58,2.93,15.58,2.93,4.89,1.83,7.16,3.04,10.71,3.91,4.41,1.08,6.65,1.34,12.66,0,17.52-3.91,46.24-13.7,52.57-15.62,1.14-.35,3.6-1.06,6.82-.98,2.81,.07,6.51,1.3,7.79,.98,7.79-1.95,8.91-2.4,12.66-4.88,7.17-4.75,8.76-6.83,15.58-12.69,.84-.72,1.98-2.39,6.82-2.93,8.76-.98,23-3.97,30.18-9.76,5.21-4.2,7.79-8.79,8.76-13.67s1.95-12.69,.97-18.55c-.45-2.69-2.7-4.66-4.87-4.88-9.74-.98-26.29-.98-26.29-.98-1.53,1.84-1.95,2.93-1.95,2.93,0,0-24.34-9.76-46.73-25.39-3.49-2.44-7.79-8.79-7.79-8.79,0,0,8.76-2.93,12.66-1.95,5.62,1.41,17.52,1.95,24.34-10.74,2.76-5.14,3.89-5.78,3.89-14.65,0-2.93,4.77-9.28,11.68-11.72,1.55-.55,3.42-1.2,5.84-.98,3.44,.32,4.77,2.12,7.79,1.95,2.05-.11,3.63-.98,4.87-1.95,31.15-24.41,52.57-45.89,52.57-45.89,3.67-4.34,5.54-6.58,7.79-9.76,3.99-5.67,7.39-19.85,15.58-33.2,7.79-12.69,16.55-40.03-12.66-48.82-2.97-.89-4.8-.2-11.68-1.95-6.12-1.56-10.69-4.13-14.6-5.86-24.34-10.74-84.7-40.03-86.65-40.03-2.99,0-4.87,2.93-4.87,2.93-4.87,6.83-6.96,8.59-10.71,10.74-6.82,3.91-12.24,.68-14.6-1.95-8.76-9.76-13.63-16.6-15.58-22.46-.58-1.76-.42-3.58,0-5.86,.74-3.97,2.59-5.27,2.92-8.79,.22-2.39-.4-4.21-.97-5.86,0,0-16.55-16.6-22.39-16.6-3,0-5.34,.62-5.84,.98-23.37,16.6-121.3,75.38-163.56,84.95-150.91,34.17-225.87-1.95-280.39-23.43-5.84-2.3-14.3-.04-22.39,3.91-6.65,3.24-9.53,8.78-12.66,9.76-46.73,14.65-65.68,22.29-74.97,22.46-4.36,.08-11.62-.02-21.42,1.95-7.14,1.44-11.9,3.24-21.42,6.83-13.88,5.25-14.6,7.81-14.6,7.81,0,0,17.7,10.98,16.55,15.62-.14,.58-.44,.55-1.95,1.95-2.4,2.24-6.44,5.98-6.82,10.74-.28,3.51,1.53,6.24,1.95,6.83,1.82,2.6,3.73,2.72,6.82,4.88,5.27,3.7,4.13,6.49,7.79,8.79,1.96,1.23,4.21,1.63,18.5-.98,5.3-.97,8.98-1.64,14.6-2.93,9.87-2.27,12.42-3.38,18.5-3.91,.63-.05,8.48-1.62,10.71,0,21.42,15.62,32.13,12.69,32.13,12.69,0,0-7.18,.93-15.58,6.83-2.58,1.81-3.81,3.24-3.89,4.88-.18,3.44,4.73,6.21,5.84,6.83,11.61,6.55,30.38-4.72,44.78-.98,4.58,1.19,3.89,4.88,12.66,16.6,15.44,20.64,24.34,25.39,33.1,31.24,10.07,6.74,21.09-3.1,35.05-9.76,20.45-9.76,46.73-11.72,48.68-12.69,1-.5,5.59,3.07,4.87,4.88-3.89,9.76-5.84,6.83-22.39,13.67-13.4,5.53-18.5,9.76-27.26,28.32-1.72,3.64-4.87,5.88-9.74,4.88-42.84-8.79-65.23-9.76-112.94-18.55-9.77-1.8-15.25,2.19-19.47,6.83-3.64,4-2.8,5.95-5.84,9.76-3.89,4.88,2.92,.98-37.97,18.55-1.34,.58-2.75,1.55-3.89,4.88-10.71,31.24-29.98,38.74-41.86,41.99-21.42,5.86-14.84,3.61-23.37,10.74-11.68,9.76-9.67,11.56-16.55,15.62-31.47,18.57-77.03,31.84-81.44,33.1-.21,.06-.16-.02-.35,.1-.97,.62-.97,1.95-.97,1.95,0,3.35,0,4.88,.97,8.79,0,0,5.84,2.93,7.79,.98,13.63-13.67,26.66-4.87,32.13-.98,5.72,4.07,4.41,7.12,10.71,16.6,1.95,2.93,.06,4.87,7.79,3.91,7.79-.98,12.07-5.08,13.63-9.76,1.95-5.86,.93-7.3,1.95-7.81,25.31-12.69,40.89-35.15,98.33-22.46,18.83,4.16,35.37,19.31,59.39,27.34,8.76,2.93,7.14,.16,11.68-.98,15.58-3.91,22.23-15.88,24.34-22.46,8.76-27.34,14.6-24.41,37.97-34.17Z"/><path class="e" d="M734.7,421.35s-11.68,34.17-29.21,71.28c-1.44,3.04-9.74,7.81-9.74,7.81l-7.79-9.76s14.83-36.11,15.58-45.89c1.95-25.39,8.33-25.36,15.58-27.34,10.71-2.93,15.58,3.91,15.58,3.91Z"/><path class="e" d="M830.11,314.92c-16.99,5.66-31.15,8.79-62.31,19.53-8.2,2.83-8.63,16.74-8.76,24.41-.07,4.17-.29,5.06,.97,6.83,4.87,6.83,10.71,11.72,10.71,11.72,0,0-7.46,8.37-10.71,9.76-4.1,1.76-6.16,1.31-9.74,3.91-1.25,.91-3.89,6.83-3.89,6.83,0,0,4.52,4.75,5.84,4.88,9.74,.98,56.47-21.48,56.47-21.48l2.92,2.93s10.97-5.25,15.58-11.72c9.74-13.67,14.6-22.46,31.15-50.77,3.74-6.41,4.87-17.58,4.87-17.58,0,0-8.45-1.2-9.74-.98-2.26,.4-4.34,.58-5.84,1.95-1.42,1.3-5.58,5.78-17.52,9.76Z"/><path class="e" d="M1167.94,249.5s28.23,0,28.23,0l3.89,1.95s.32,2.06-1.95,4.88c-4.83,6.02-10.02,5.45-12.66,10.74-.75,1.51-1.67,4.27,.97,5.86,4.87,2.93,7.79,3.91,16.55,5.86,6.82,1.52,10.71,6.83,10.71,6.83l-27.26,26.36s-3.99-8.49-9.74-7.81c-3.14,.37-8.37,1.59-11.68,1.95-6.48,.7-11.07-5.97-11.68-6.83-4.45-6.27-4.27-14.49-2.92-18.55,2.92-8.79,3.89-25.39,17.52-31.24Z"/><path class="e" d="M1118.29,752.35c11.6,6.98,53.55,33.2,53.55,33.2l6.82,7.81-10.71,.98s-32.13-10.74-71.07-23.43c-2.07-.67-4.87-5.86-4.87-5.86,0,0,6.82-5.86,12.66-10.74,4.23-3.54,8.76-4.88,13.63-1.95Z"/><path class="e" d="M653.89,812.88l79.83,12.69,6.82,18.55s-2.92,3.91-1.95,6.83,10.71,17.58-.97,31.24c-11.68,13.67-25.31,26.36-25.31,26.36,0,0-9.88,8.57-13.7-1.08s-5.77-12.58-5.77-12.58l-47.71-45.89-15.58-11.72h0c-.63-.39-.99-1.12-.87-1.85,.3-1.7,1.21-3.25,2.58-4.34l22.63-18.22Z"/><path class="e" d="M844.71,763.09l9.74,9.76s4.87,28.32-16.55,29.29c-2.92,.13-5.84-7.81-8.76-13.67-.12-.25-1.13-5.97,.97-8.79,8.76-11.72,14.6-16.6,14.6-16.6Z"/><path class="e" d="M854.92,742.91c-1.9-3.59-6.32-2.28-11.51,0-9.22,4.05-33.75,42.64-43.49,70.95-1.42,4.13-20.45,3.91-20.45,3.91l-1.95-7.81s-1.95,0,.97-5.86c7.4-14.85,30.18-53.7,30.18-53.7l.97-12.69,2.92-16.6,15.58-38.08-12.66,6.83-43.81,46.87-26.29,22.46-4.22,1.12-6.49-.14-.97-5.86,3.89-8.79s1.95-4.88-1.95-5.86-5.84-.98-5.84-.98c0,0-1.95,0-2.92-.98s-6.82-5.86-6.82-5.86l8.76-10.74s2.92-2.93,7.79-3.91,25.31-2.93,28.23-3.91,7.79,0,20.45-9.76,65.23-62.49,65.23-62.49c0,0,1.95-4.88-.97-6.83s-13.63-3.91-13.63-3.91c0,0-.97,6.83-2.92,9.76s-4.87,11.72-20.45,11.72c-15.58,0-61.34,.98-61.34,.98,0,0-5.84-4.88,1.95-6.83,7.79-1.95,26.29-10.74,26.29-10.74,0,0,.97-.98,0-2.93s-6.82-31.24-6.82-31.24l25.31-2.93,8.76,2.93,.65-4.84-10.38-3.95-6.82-1.95s-1.95-6.83-.97-9.76,12.66-3.91,12.66-3.91l29.21-1.95s3.84,.47,2.92-2.93c-2.92-10.74-11.68-9.76,10.71-31.24,8.47-8.13,16.55-16.6,16.55-16.6,0,0-2.03-3.45-2.92-2.93-11.68,6.83-35.05,11.72-35.05,11.72l4.87-16.6-4.87-1.95s-24.34,5.86-31.15-12.69-4.87-10.74-10.71-19.53-2.93-.33-16.55-18.55c-2.92-3.91,5.84-12.69,17.52-11.72,11.8,.99,17.96,0,17.96,0,0,0,5.41,.98,8.33-4.88s5.84-16.6,5.84-16.6l7.79,.98,5.84,13.67s1.58,9.33,.97,12.69c-.37,2.05-3.89,8.79-3.89,8.79,0,0-1.76,4.49,4.87,7.81,7.79,3.91,6.82,7.81,6.82,7.81h0l4.87,19.53s3.89,3.91,9.74,2.93,20.45-12.69,20.45-12.69l-1.95-1.95h-11.68l-1.95-15.62s-.97-9.76,5.84-11.72c6.82-1.95,7.79-9.76,7.79-15.62s-1.43-15.22,.97-22.46c.97-2.93,2.92-13.67,21.42-13.67,18.5,0,24.34,1.95,41.97,0,6.02-.67,.87-6.83-.11-7.81s-10.71-7.81-10.71-7.81c0,0-2.92-2.93-1.95-6.83s0-5.86,0-5.86l12.66,.98s6.82,0,3.89-6.83c-2.92-6.83-4.87-3.91-4.87-11.72s8.76-7.81,8.76-7.81l10.71,.98s1.84,0,4.33-4.88,19.04-40.03,19.04-40.03c0,0,4.87-9.76,14.6-5.86,9.74,3.91,43.17,19,59.39,23.43,10.71,2.93,10.71,1.95,15.58,0s8.76-4.88,13.63-2.93,16.55,5.86,29.21,1.95,25.75-4.41,25.75-4.41l33.63,5.39s-3.95,18.55-3.89,19.53c.97,18.55-2.52,23.27-17.52,30.27-41.86,19.53-76.91,41.99-76.91,41.99l-21.42,21.48,9.74,3.91,11.68,.98-6.82,9.76-24.34,19.53v3.91s16.72,3.58,22.39,3.91c3.92,.22,11.85-.71,15.58-1.95,11.68-3.91,10.71-3.91,10.71-3.91,0,0,5.84-2.93,13.63-1.95,6.21,.78,24.34,5.86,24.34,5.86l83.73,10.74s19.47,2.93,24.34,5.86,21.42,9.76,23.37,20.5-2.92,16.6-5.84,24.41-50.63,73.23-50.63,73.23c0,0-18.79,17.87-24.34,23.43-6.82,6.83-10.71,13.67-15.58,19.53-4.49,5.41-7.79,10.74-22.39,15.62l-14.6,4.88s-1.95,.98-1.95,2.93,.46,15.32,.97,16.6c3.89,9.76,13.63,15.62,13.63,15.62,0,0-29.21,10.74-39.92,13.67s-44.25,12.8-43.81,13.67c2.92,5.86,19.47,14.65,19.47,14.65,0,0-10.19,1.82-13.63,1.95-10.06,.38-41.11,1.78-46.73,1.95-62.31,1.95-95.41,11.72-111.96,13.67-14.54,1.72-33.1-12.69-44.31-33.85Z"/></g></svg>