<?xml version="1.0" encoding="UTF-8"?><svg id="a" xmlns="http://www.w3.org/2000/svg" viewBox="0 0 2000 2000"><defs><style>.e{fill:#172983;}.f{fill:#f08a00;}.g{fill:#e2001a;}</style></defs><path id="b" class="e" d="M951.81,991.39c-197.34-58.38-412.45-7.66-445.25,1.05-49.64,13.15-78.81,26.45-76.78,42.01,1.6,11.5,14.28,19.39,75.33,17.91,145.5-3.54,266.06,1.36,342.29,22.73,94.4,26.33,105.96,74.93,59.28,170.45-21.66,44.13-53.59,89.8-102.01,138.25-96.67,96.94-217.34,160.05-285.45,194.43-66.13,33.59-90.31,15.82-82.97-17.33,9-40.5,196.73-365.31,196.73-365.31,14.11-24.68,16.57-47.84,0-54.78-14.28-6.04-40.06,13.96-66.83,44.94-109.56,127.22-311.57,514.3-315.32,527.04-3.69,12.14,5.81,13.64,9.43,13.73,85.52-.58,610.58-155.9,780.05-473.39,89.24-167.14,44.07-222.47-88.51-261.72"/><path id="c" class="f" d="M1213.36,838.7c-106.02,91.71,51.27,242.76,125.2,329.37,71.93,84.19,159.02,191.03,163.12,227.72,1.83,16.81-1.51,35.94-21.68,48.42-32.92,20.64-168.89,40.44-450.19,40.24-60.96-.09-73.47,5.92-75.07,16.84-.81,5.72-2.7,18.99,74.95,38.44,2.12,.58,322.37,59.49,493.15,0,174.5-59.52,130.57-160.02,99.31-218.06-48.22-89.42-270.58-349.43-288.93-384.79-17.16-33.13,7.78-47.58,7.78-47.58,0,0,37.24-44.77,333.78-42.21,61.08,.52,73.73-5.86,75.16-16.9,1.22-9.09-16.23-28.86-74.34-41.28-54.81-11.79-335.03-60.18-462.23,49.79"/><path id="d" class="g" d="M830.91,298.7c-23.63,6.91-71.3,20.06-67.26,37.42,2.58,11.15,12.05,16.46,67.38,16.4,123.81-.15,220.07,7.9,285.94,19.71,134.09,24.21,102.5,91.86,64.45,156.63-92.46,157.64-342.14,334.97-356.62,344.98-19.04,13.12-8.62,20.79,8.04,14.54,202.39-75.28,406.44-205.14,488.8-362.9,69.9-133.81,19.83-197.3-86.71-227.2-190.17-53.51-387.37-4.5-404,.41"/></svg>