<?xml version="1.0" encoding="UTF-8"?><svg id="a" xmlns="http://www.w3.org/2000/svg" viewBox="0 0 2000 2000"><defs><style>.b{fill:#6884c2;}</style></defs><path d="M358.23,1636.56V543.38h-113.43V1750H1451.06v-113.44H358.23Zm275.56-417.33c31.2,0,53.06-9.37,74.56-32.12l-31.26-29.97c-14.26,15.65-25.51,21.51-43.31,21.51s-32.16-7.18-41.95-20.14c-9.86-12.47-13.42-29-13.42-55.38s3.56-42.39,13.42-54.87c9.8-12.97,24.54-20.14,41.96-20.14s29.04,5.81,43.3,21.47l31.26-30.39c-21.51-22.77-43.37-31.7-74.56-31.7-50.91,0-100.98,30.84-100.98,115.63s50.07,116.1,100.98,116.1h0Zm209.38,0c39.75,0,61.58-12.03,84.8-35.25l-29.03-27.26c-16.03,16.07-29.4,23.23-54.92,23.23-37,0-57.58-24.56-57.58-63.4h146.91v-20.1c0-64.33-35.34-108.96-96.07-108.96s-95.87,42.4-95.87,115.63c0,86.17,45.03,116.1,101.76,116.1h0Zm-50.91-165.21c7.12-16.94,23.61-28.58,45.03-28.58s37.58,11.64,44.7,28.58c4.53,10.27,5.86,16.99,6.28,30.83h-101.83c.49-13.84,1.28-20.56,5.82-30.84h0Zm274.59,126.39c-22.37,0-46.91-4.93-65.12-23.68l-30,29.93c26.75,26.35,58.11,32.58,95.12,32.58,54.06,0,94.22-24.56,94.22-71.89,0-40.18-25-60.26-67.4-63.81l-35.68-3.18c-24.12-2.19-31.35-12.45-31.35-25.91,0-16.91,13.82-28.98,41.12-28.98,21.42,0,41.52,4.45,55.84,16.53l28.52-29.07c-21.02-18.26-49.96-25.42-83.86-25.42-47.39,0-85.3,24.98-85.3,69.21,0,39.75,24.56,58.96,66.9,62.54l36.25,3.09c21.8,1.79,30.27,11.61,30.27,26.77,0,21.42-21.85,31.29-49.52,31.29h0Zm195.08-190.19h-45.52v226.34h45.52s0-226.34,0-226.34Z"/><path class="b" d="M776.23,543.23h674.9v672.38h304.06V250H776.22v293.23h0Z"/></svg>