<?xml version="1.0" encoding="utf-8"?>
<!-- Generator: Adobe Illustrator 25.4.1, SVG Export Plug-In . SVG Version: 6.00 Build 0)  -->
<svg version="1.1"
	 id="Layer_1" sodipodi:docname="PC.svg" xmlns:cc="http://creativecommons.org/ns#" xmlns:dc="http://purl.org/dc/elements/1.1/" xmlns:inkscape="http://www.inkscape.org/namespaces/inkscape" xmlns:rdf="http://www.w3.org/1999/02/22-rdf-syntax-ns#" xmlns:sodipodi="http://sodipodi.sourceforge.net/DTD/sodipodi-0.dtd" xmlns:svg="http://www.w3.org/2000/svg"
	 xmlns="http://www.w3.org/2000/svg" xmlns:xlink="http://www.w3.org/1999/xlink" x="0px" y="0px" viewBox="0 0 16.3 9.9"
	 style="enable-background:new 0 0 16.3 9.9;" xml:space="preserve">
<path id="path4514" inkscape:connector-curvature="0" d="M0.9,0v8.8h14.5V0L0.9,0L0.9,0z M1.7,0.7h13v7.3h-13V0.7z M0,9v0.5l0.5,0.3
	h15.4l0.5-0.3V9H0z"/>
<g>
	<path d="M6.8,3"/>
</g>
<path d="M5,4h6.3c0.2,0,0.3-0.2,0.3-0.3v0c0-0.2-0.2-0.3-0.3-0.3H5c-0.2,0-0.3,0.2-0.3,0.3v0C4.7,3.8,4.8,4,5,4z"/>
<path d="M5.5,5.1h5.2c0.2,0,0.3-0.1,0.3-0.3V4.7c0-0.2-0.1-0.3-0.3-0.3H5.5c-0.2,0-0.3,0.1-0.3,0.3v0.1C5.2,4.9,5.4,5.1,5.5,5.1z"/>
</svg>
