<?xml version="1.0" encoding="UTF-8"?><svg id="a" xmlns="http://www.w3.org/2000/svg" viewBox="0 0 440 512"><defs><style>.b{fill:#fff;}</style></defs><g><rect class="b" x="12.5" y="12.5" width="415" height="487" rx="67.5" ry="67.5"/><path d="M360,25c30.33,0,55,24.67,55,55V432c0,30.33-24.67,55-55,55H80c-30.33,0-55-24.67-55-55V80c0-30.33,24.67-55,55-55H360m0-25H80C35.82,0,0,35.82,0,80V432c0,44.18,35.82,80,80,80H360c44.18,0,80-35.82,80-80V80C440,35.82,404.18,0,360,0h0Z"/></g><g><path d="M299.01,281.27l37.62-127.03h47.99l-68.55,202.54h-34.1l-68.55-202.54h47.99l37.62,127.03Z"/><path d="M137.64,359.71c-26.13,0-46.41-8.2-60.82-24.59s-21.62-39.48-21.62-69.27v-21.66c0-29.53,7.21-52.39,21.62-68.59s34.69-24.29,60.82-24.29c15,0,28.56,2.8,40.69,8.39,12.13,5.59,21.77,13.59,28.92,24l-31.11,33.56c-4.34-4.55-9.52-8.1-15.56-10.63-6.04-2.54-12.33-3.81-18.9-3.81-12.19,0-21.62,3.61-28.3,10.83-6.68,7.22-10.02,17.4-10.02,30.54v21.66c0,13.53,3.34,23.97,10.02,31.32,6.68,7.35,16.11,11.02,28.3,11.02,6.56,0,12.86-1.37,18.9-4.1,6.03-2.73,11.22-6.63,15.56-11.71l31.11,35.51c-7.15,10.15-16.79,17.99-28.92,23.51s-25.69,8.29-40.69,8.29Z"/></g></svg>