<?xml version="1.0" encoding="UTF-8"?><svg id="a" xmlns="http://www.w3.org/2000/svg" viewBox="0 0 98 98"><g id="b"><g><path d="M18.56,71.04h0c9.34,8.53,22.31,11.03,33.88,6.53,.53-.2,.92-.67,1.04-1.25,.12-.58-.04-1.19-.44-1.61l-11.27-11.94c-.47-.53-1.21-.69-1.85-.4-4.28,2.28-9.01,3.47-13.8,3.47-1.57-.02-3.14-.16-4.69-.43,.74-6.75,3.44-13.09,7.74-18.12l6.19,6.55c.3,.32,.71,.5,1.14,.5,.43,0,.85-.18,1.16-.5,4.19-4.42,4.48-11.52,.65-16.3-.53-.78-1.55-.95-2.28-.39-.73,.56-.9,1.64-.37,2.42,.05,.07,.1,.13,.15,.19,2.3,2.92,2.53,7.1,.57,10.29l-4.9-5.2c.52-.5,1.04-.97,1.63-1.44,.71-.62,.81-1.73,.23-2.48s-1.63-.86-2.33-.24h0c-1.05,.89-2.04,1.84-2.99,2.84h-.08v.1c-5.57,5.92-9.04,13.71-9.8,22.04-11.64-13.34-10.89-34.17,1.68-46.52,4.69-4.61,10.61-7.57,16.95-8.47l.77-.09c.04,7.58,3.22,14.77,8.69,19.65,.3,.27,.67,.42,1.06,.42,.48,0,.93-.23,1.24-.62,.58-.73,.49-1.82-.19-2.44,0,0,0,0,0,0-4.78-4.27-7.54-10.56-7.53-17.19,10.73,.02,20.69,5.91,26.34,15.59l-10.71,5.98c-1.3,.68-2.75,1-4.2,.95h0c-3.2,0-6.38,.47-9.45,1.4-.85,.31-1.31,1.3-1.01,2.2,.27,.84,1.1,1.32,1.91,1.12,2.78-.84,5.66-1.26,8.56-1.26h0c1.97,.02,3.91-.46,5.67-1.42l12.29-6.83c.8-.45,1.1-1.5,.68-2.34,0,0,0,0,0-.01-6.25-12.15-18.47-19.46-31.5-18.85h0c-.85,0-1.71,.1-2.58,.21l-3.76-6.06c-.35-.58-.99-.89-1.63-.78C12.66,2.95-.53,21.25,1.98,41.17c.96,7.64,4.18,14.75,9.19,20.32,1.93,3.61,4.44,6.84,7.4,9.55Zm21.77-5.02l8.54,9.08c-9.56,2.71-19.77,.42-27.48-6.17,6.45,1.03,13.03,.02,18.94-2.91ZM5.16,32.18C6.97,17.78,17.4,6.31,30.89,3.88l2.4,3.93c-14.02,3.44-24.56,15.73-26.47,30.86-.35,2.97-.35,5.97,0,8.94-1.71-4.93-2.28-10.22-1.67-15.44Z"/><ellipse cx="50.63" cy="17.33" rx="1.63" ry="1.73"/><path d="M80.02,29.21v26.23c0,5.74-4.39,10.4-9.8,10.4s-9.8-4.65-9.8-10.4v-5.2l3.92,3.12c.72,.57,1.74,.42,2.29-.35,.54-.77,.39-1.85-.33-2.43h0l-6.53-5.2c-.5-.39-1.16-.45-1.71-.16-.55,.29-.9,.89-.9,1.54v8.66c0,7.66,5.85,13.86,13.06,13.86s13.06-6.21,13.06-13.86V29.21c3.48-1,5.54-4.81,4.59-8.51-.61-2.37-2.35-4.23-4.59-4.87V1.73c0-.96-.73-1.73-1.63-1.73s-1.63,.78-1.63,1.73V15.84c-3.48,1-5.54,4.81-4.59,8.51,.61,2.37,2.35,4.23,4.59,4.87Zm1.63-10.15c1.8,0,3.27,1.55,3.27,3.47s-1.46,3.47-3.27,3.47-3.27-1.55-3.27-3.47,1.46-3.47,3.27-3.47Z"/><path d="M29.78,19.61c-.88-.16-1.72,.47-1.88,1.4-.78,4.71,2.18,9.2,6.61,10.03h.29c.9,.08,1.69-.63,1.77-1.59,.08-.96-.59-1.8-1.49-1.88-2.67-.46-4.48-3.13-4.05-5.96,.16-.92-.4-1.81-1.26-2.01Z"/><path d="M26.96,34.65c0-.96-.73-1.73-1.63-1.73-2.25,0-4.08-1.94-4.08-4.33,0-.96-.73-1.73-1.63-1.73s-1.63,.78-1.63,1.73c0,4.3,3.29,7.79,7.35,7.8,.9,0,1.63-.78,1.63-1.73Z"/><path d="M16.34,40.72c0-.96-.73-1.73-1.63-1.73s-1.63,.78-1.63,1.73c0,4.3,3.29,7.79,7.35,7.8,.9,0,1.63-.78,1.63-1.73s-.73-1.73-1.63-1.73c-2.25,0-4.08-1.94-4.08-4.33Z"/><path d="M5.73,89.3c1.97,0,3.85-.83,5.24-2.3,1.61-1.71,4.23-1.71,5.84,0,0,0,0,0,0,0,2.89,3.07,7.59,3.07,10.48,0,1.61-1.71,4.23-1.71,5.84,0,0,0,0,0,0,0,2.89,3.07,7.59,3.07,10.48,0,1.61-1.71,4.23-1.71,5.84,0,0,0,0,0,0,0,2.89,3.07,7.59,3.07,10.48,0,1.61-1.71,4.23-1.71,5.84,0,0,0,0,0,0,0,2.89,3.07,7.59,3.07,10.48,0,1.61-1.71,4.23-1.71,5.84,0,0,0,0,0,0,0,2.89,3.07,7.59,3.07,10.48,0,.92-.98,2.22-1.44,3.51-1.23,.9,.13,1.74-.53,1.86-1.49s-.5-1.84-1.4-1.98c-2.31-.36-4.64,.46-6.29,2.2-1.61,1.71-4.23,1.71-5.84,0,0,0,0,0,0,0-2.89-3.07-7.59-3.07-10.48,0-1.61,1.71-4.23,1.71-5.84,0,0,0,0,0,0,0-2.89-3.07-7.59-3.07-10.48,0-1.61,1.71-4.23,1.71-5.84,0,0,0,0,0,0,0-2.89-3.07-7.59-3.07-10.48,0-1.61,1.71-4.23,1.71-5.84,0,0,0,0,0,0,0-2.89-3.07-7.59-3.07-10.48,0-1.61,1.71-4.23,1.71-5.84,0,0,0,0,0,0,0-2.89-3.07-7.59-3.07-10.48,0-1.61,1.71-4.23,1.71-5.84,0,0,0,0,0,0,0-.64-.68-1.68-.68-2.32,0-.64,.68-.64,1.78,0,2.46H.49c1.39,1.49,3.27,2.33,5.24,2.34Z"/><path d="M97.51,93.2c-2.89-3.07-7.59-3.07-10.48,0-1.61,1.71-4.23,1.71-5.84,0,0,0,0,0,0,0-2.89-3.07-7.59-3.07-10.48,0-1.61,1.71-4.23,1.71-5.84,0,0,0,0,0,0,0-2.89-3.07-7.59-3.07-10.48,0-1.61,1.71-4.23,1.71-5.84,0,0,0,0,0,0,0-2.89-3.07-7.59-3.07-10.48,0-1.61,1.71-4.23,1.71-5.84,0,0,0,0,0,0,0-2.89-3.07-7.59-3.07-10.48,0-1.61,1.71-4.23,1.71-5.84,0,0,0,0,0,0,0-2.89-3.07-7.59-3.07-10.48,0-.92,.97-2.22,1.43-3.51,1.23-.9-.13-1.74,.53-1.86,1.49-.13,.96,.5,1.84,1.4,1.98,2.31,.37,4.64-.45,6.29-2.2,1.61-1.71,4.23-1.71,5.84,0,0,0,0,0,0,0,2.89,3.07,7.59,3.07,10.48,0,1.61-1.71,4.23-1.71,5.84,0,0,0,0,0,0,0,2.89,3.07,7.59,3.07,10.48,0,1.61-1.71,4.23-1.71,5.84,0,0,0,0,0,0,0,2.89,3.07,7.59,3.07,10.48,0,1.61-1.71,4.23-1.71,5.84,0,0,0,0,0,0,0,2.89,3.07,7.59,3.07,10.48,0,1.61-1.71,4.23-1.71,5.84,0,0,0,0,0,0,0,2.89,3.07,7.59,3.07,10.48,0,1.61-1.71,4.23-1.71,5.84,0,0,0,0,0,0,0,.64,.68,1.68,.68,2.32,0s.64-1.78,0-2.46v-.03Z"/></g></g></svg>