<?xml version="1.0" encoding="UTF-8"?><svg id="a" xmlns="http://www.w3.org/2000/svg" viewBox="0 0 2000 2000"><defs><style>.c{fill:#aacc87;}</style></defs><path id="b" class="c" d="M1370.07,1750c-58.59,0-116.02-16.62-163.73-47.72-35.91-23.4-64.75-57.55-83.39-98.75-1.09-2.4-2.01-4.91-2.76-7.42l-100.37-339.82c-9.04-30.62,8.45-62.76,39.06-71.82,30.66-8.96,62.77,8.46,71.8,39.06l99.14,335.68c9.48,19.54,23.12,35.49,39.62,46.24,32.55,21.18,72.93,31.3,113.93,28.51,86.08-5.96,153.52-72.47,153.52-151.43V871.66c0-80.07-68.39-146.77-155.71-151.86-78.11-4.51-119.42,31.48-177.78,108.86l-83.72,110.98c-26.12,34.62-52.09,69.33-78.06,104.03-50.89,68.01-103.51,138.34-156.53,206.93-24.55,31.75-44.96,54.53-66.23,73.86-60.77,55.33-128.52,80.05-206.84,75.4-148.33-8.64-264.55-126.03-264.55-267.24V517.49c0-144.02,123.75-263.97,275.85-267.37,71.17-2.08,142.07,22.35,194.98,65.68,58.5,47.94,76.82,110.14,92.98,164.99l76.06,257.6c9.05,30.6-8.44,62.75-39.05,71.8-30.57,8.96-62.75-8.45-71.8-39.08l-76.1-257.67c-13.64-46.3-24.4-82.88-55.34-108.22-31.9-26.11-75.58-40.26-119.14-39.56-89.79,2.03-162.85,70.13-162.85,151.82v615.13c0,80.07,68.39,146.77,155.7,151.86,47.04,2.8,84.72-11.28,122.3-45.48,16.1-14.68,32.31-32.88,52.59-59.11,52.45-67.87,104.8-137.82,155.42-205.47,26.07-34.83,52.13-69.66,78.32-104.39l83.73-111c62.46-82.79,135.42-163,276.81-154.63,148.33,8.64,264.55,126.04,264.55,267.24v610.87c0,139.44-114.72,256.62-261.16,266.74-7.1,.5-14.2,.73-21.27,.73"/></svg>