<?xml version="1.0" encoding="UTF-8"?><svg id="a" xmlns="http://www.w3.org/2000/svg" viewBox="0 0 98 98"><ellipse cx="27.24" cy="9.04" rx="8.81" ry="8.65"/><path d="M94.68,29.94c-2.11-.87-4.37-2.03-6.2-3.28-.82-.56-1.15-.34-.81,.58l.61,1.62-7.07,.04C79.84,3.61,56.46,1.24,56.22,1.21c-1.48-.13-2.81,.95-2.95,2.41-.13,1.46,.97,2.76,2.46,2.89,.79,.07,18.78,1.91,20.04,22.41l-14.64,.09c-.69-2.17-2.73-3.76-5.16-3.76h-18.83c-.83-1.9-2.75-3.23-4.99-3.23h-9.5l-12.17-5.97c-2.68-1.31-5.94-.25-7.28,2.38-1.34,2.63-.26,5.83,2.43,7.15l11.27,5.53v21.03L6.08,90.87c-.79,2.84,.91,5.77,3.8,6.55,.48,.13,.96,.19,1.44,.19,2.38,0,4.57-1.55,5.23-3.92l9.8-35.05h1.69l9.08,34.96c.63,2.41,2.83,4.02,5.26,4.02,.44,0,.9-.05,1.34-.17,2.9-.73,4.66-3.63,3.92-6.48l-10.05-38.72v-16.32h18.39c2.28,0,4.23-1.39,5.03-3.35,3.18-.02,9.11-.05,14.77-.09-.75,18.01-17.21,23.39-17.92,23.61-1.43,.43-2.23,1.93-1.79,3.34,.36,1.14,1.43,1.87,2.59,1.87,.27,0,.54-.04,.81-.12,.22-.06,21.03-6.69,21.78-28.73,2.99-.02,5.54-.03,7.06-.04l-.59,1.62c-.33,.93,0,1.15,.81,.57,1.81-1.27,4.06-2.45,6.16-3.35,.92-.39,.91-.94,0-1.32Z"/></svg>