<svg id="prefix__a" xmlns="http://www.w3.org/2000/svg" viewBox="0 0 2000 2000"><defs><clipPath id="prefix__d"><path class="prefix__ai" d="M280 1000c0 209.24 322.36 378.86 720 378.86s720-169.62 720-378.86c0-209.23-322.36-378.86-720-378.86S280 790.77 280 1000"/></clipPath><clipPath id="prefix__k"><path class="prefix__ai" d="M250 578h1500v844H250z"/></clipPath><clipPath id="prefix__p"><path class="prefix__ai" d="M250 578h1500v844H250z"/></clipPath><radialGradient id="prefix__h" cx="68.34" cy="1834.07" fx="68.34" fy="1834.07" r="2.08" gradientTransform="matrix(453.82 0 0 -453.96 -30302.45 833343.03)" gradientUnits="userSpaceOnUse"><stop offset="0" stop-color="#aeb2d5"/><stop offset=".3" stop-color="#aeb2d5"/><stop offset=".75" stop-color="#484c89"/><stop offset="1" stop-color="#484c89"/></radialGradient><style>.prefix__ad{fill:#fff}.prefix__ai{fill:none}</style></defs><g id="prefix__b"><g clip-path="url(#prefix__d)" id="prefix__c"><g id="prefix__e"><g id="prefix__f"><g id="prefix__g"><path id="prefix__i" d="M280 1000c0 209.24 322.36 378.86 720 378.86s720-169.62 720-378.86c0-209.23-322.36-378.86-720-378.86S280 790.77 280 1000" fill="url(#prefix__h)"/></g></g></g></g><g clip-path="url(#prefix__k)" id="prefix__j"><g id="prefix__l"><g id="prefix__m"><path id="prefix__n" d="M1000 1350.73c382.11 0 691.87-157.03 691.87-350.73S1382.1 649.27 1000 649.27 308.13 806.3 308.13 1000 617.9 1350.73 1000 1350.73" fill="#777bb3"/></g></g></g><g clip-path="url(#prefix__p)" id="prefix__o"><g id="prefix__q"><g id="prefix__r"><path id="prefix__s" d="M671.18 1043.49c31.42 0 54.88-5.8 69.72-17.22 14.68-11.31 24.82-30.9 30.14-58.23 4.96-25.54 3.07-43.38-5.61-53.01-8.87-9.83-28.05-14.82-57.01-14.82h-50.21l-27.84 143.27h40.82zm-164.23 176.48c-2.33 0-4.54-1.04-6.03-2.84a7.81 7.81 0 01-1.64-6.46L573.05 831a7.81 7.81 0 017.67-6.32h158.99c49.97 0 87.16 13.57 110.54 40.34 23.5 26.91 30.76 64.53 21.57 111.81-3.74 19.26-10.17 37.15-19.12 53.16-8.96 16.03-20.79 30.87-35.18 44.1-17.23 16.13-36.73 27.83-57.91 34.71-20.84 6.79-47.61 10.23-79.55 10.23h-64.38l-18.39 94.62a7.81 7.81 0 01-7.67 6.32h-82.68z"/></g><g id="prefix__t"><path id="prefix__u" class="prefix__ad" d="M664.64 908.03h43.77c34.95 0 47.09 7.67 51.22 12.24 6.84 7.59 8.14 23.6 3.74 46.28-4.94 25.4-14.1 43.41-27.23 53.52-13.44 10.35-35.3 15.6-64.95 15.6h-31.34l24.8-127.64zm75.08-91.17h-159c-7.48 0-13.91 5.3-15.34 12.65l-73.77 379.67c-.89 4.58.31 9.32 3.28 12.92 2.97 3.6 7.39 5.69 12.06 5.69h82.68c7.48 0 13.91-5.3 15.34-12.65l17.16-88.29h57.94c32.77 0 60.35-3.57 81.98-10.62 22.24-7.23 42.71-19.48 60.82-36.43 14.98-13.79 27.32-29.26 36.67-46 9.35-16.74 16.07-35.41 19.97-55.49 9.67-49.76 1.82-89.62-23.36-118.44-24.93-28.54-64.1-43.02-116.42-43.02m-118.84 234.44h50.29c33.34 0 58.17-6.28 74.48-18.84 16.32-12.57 27.32-33.54 33.04-62.93 5.47-28.22 2.98-48.13-7.48-59.73-10.47-11.6-31.4-17.4-62.82-17.4h-56.65l-30.87 158.9m118.84-218.81c47.83 0 82.72 12.56 104.66 37.67 21.93 25.11 28.53 60.17 19.78 105.17-3.6 18.54-9.69 35.49-18.27 50.85-8.59 15.37-19.8 29.42-33.65 42.16-16.51 15.46-34.85 26.47-55.03 33.03-20.18 6.58-45.89 9.85-77.14 9.85h-70.82l-19.61 100.94h-82.68l73.77-379.67h159"/></g><g id="prefix__v"><path id="prefix__w" d="M1061.41 1119.03c-2.33 0-4.54-1.04-6.03-2.84a7.775 7.775 0 01-1.64-6.46l32.63-167.99c3.1-15.98 2.34-27.44-2.15-32.29-2.75-2.96-11.01-7.93-35.43-7.93h-59.12l-41.03 211.19a7.81 7.81 0 01-7.67 6.32h-82.03c-2.33 0-4.54-1.04-6.03-2.84a7.81 7.81 0 01-1.64-6.46l73.77-379.67a7.81 7.81 0 017.67-6.32h82.03c2.33 0 4.54 1.04 6.03 2.84a7.81 7.81 0 011.64 6.46l-17.8 91.64h63.6c48.45 0 81.3 8.54 100.44 26.12 19.51 17.93 25.59 46.6 18.09 85.23l-34.32 176.68a7.81 7.81 0 01-7.67 6.32h-83.33z"/></g><g id="prefix__x"><path id="prefix__y" class="prefix__ad" d="M1014.74 715.91h-82.03c-7.48 0-13.91 5.3-15.34 12.65l-73.77 379.67c-.89 4.58.31 9.32 3.28 12.92s7.39 5.69 12.06 5.69h82.03c7.48 0 13.91-5.3 15.34-12.65l39.8-204.87h52.68c24.38 0 29.5 5.21 29.71 5.43 1.48 1.59 3.42 8.96.21 25.48l-32.63 167.99c-.89 4.58.31 9.32 3.28 12.92s7.39 5.69 12.06 5.69h83.33c7.48 0 13.91-5.3 15.34-12.65l34.32-176.68c8.05-41.47 1.16-72.58-20.47-92.48-20.65-18.97-55.23-28.19-105.73-28.19h-54.13l16-82.33c.89-4.58-.31-9.32-3.28-12.92-2.97-3.6-7.39-5.69-12.06-5.69m0 15.63l-19.61 100.94h73.08c45.98 0 77.7 8.03 95.15 24.06 17.46 16.05 22.68 42.05 15.71 77.99l-34.32 176.68h-83.33l32.63-167.99c3.71-19.11 2.35-32.14-4.1-39.09-6.45-6.95-20.17-10.43-41.16-10.43h-65.56l-42.26 217.51h-82.03l73.77-379.67h82.03"/></g><g id="prefix__z"><path id="prefix__aa" d="M1316.54 1043.49c31.42 0 54.88-5.8 69.72-17.22 14.68-11.31 24.82-30.9 30.14-58.23 4.96-25.54 3.07-43.38-5.61-53.01-8.87-9.83-28.05-14.82-57.01-14.82h-50.21l-27.84 143.27h40.82zm-164.22 176.48c-2.33 0-4.54-1.04-6.03-2.84a7.81 7.81 0 01-1.64-6.46L1218.42 831a7.818 7.818 0 017.67-6.32h158.99c49.97 0 87.16 13.57 110.54 40.34 23.5 26.91 30.76 64.53 21.57 111.81-3.74 19.26-10.17 37.15-19.12 53.16-8.96 16.03-20.79 30.87-35.18 44.1-17.23 16.13-36.73 27.83-57.91 34.71-20.84 6.79-47.61 10.23-79.55 10.23h-64.38l-18.38 94.62a7.818 7.818 0 01-7.67 6.32h-82.68z"/></g><g id="prefix__ab"><path id="prefix__ac" class="prefix__ad" d="M1310 908.03h43.77c34.95 0 47.09 7.67 51.22 12.24 6.85 7.59 8.14 23.6 3.74 46.28-4.94 25.4-14.11 43.41-27.23 53.52-13.44 10.35-35.3 15.6-64.95 15.6h-31.34l24.8-127.64zm75.08-91.17h-158.99c-7.48 0-13.91 5.3-15.34 12.65l-73.77 379.67c-.89 4.58.31 9.32 3.28 12.92 2.97 3.6 7.39 5.69 12.06 5.69H1235c7.48 0 13.91-5.3 15.34-12.65l17.15-88.29h57.94c32.77 0 60.35-3.57 81.98-10.62 22.24-7.23 42.71-19.49 60.82-36.43 14.98-13.78 27.31-29.25 36.66-45.99 9.35-16.74 16.07-35.41 19.97-55.49 9.67-49.77 1.82-89.62-23.36-118.44-24.93-28.54-64.1-43.02-116.42-43.02m-118.83 234.44h50.29c33.34 0 58.17-6.28 74.48-18.84 16.32-12.57 27.32-33.54 33.04-62.93 5.47-28.22 2.98-48.13-7.48-59.73-10.47-11.6-31.4-17.4-62.82-17.4h-56.65l-30.87 158.9m118.83-218.81c47.83 0 82.72 12.56 104.66 37.67 21.93 25.11 28.53 60.17 19.78 105.17-3.6 18.54-9.69 35.49-18.27 50.85-8.59 15.37-19.8 29.42-33.65 42.16-16.51 15.46-34.85 26.47-55.03 33.03-20.18 6.58-45.89 9.85-77.14 9.85h-70.82l-19.61 100.94h-82.68l73.77-379.67h158.99"/></g></g></g></g></svg>