<?xml version="1.0" encoding="UTF-8"?><svg id="a" xmlns="http://www.w3.org/2000/svg" xmlns:xlink="http://www.w3.org/1999/xlink" viewBox="0 0 2000 2000"><defs><style>.f,.g{fill:#fddd04;}.h{fill:#fff;}.i{fill:#ed7d04;}.g{filter:url(#b);}.j{fill:url(#e);}.k{fill:#09c;}.l{fill:url(#d);}</style><filter id="b" filterUnits="userSpaceOnUse"><feOffset dx="0" dy="50"/><feGaussianBlur result="c" stdDeviation="15"/><feFlood flood-color="#515151" flood-opacity=".3"/><feComposite in2="c" operator="in"/><feComposite in="SourceGraphic"/></filter><linearGradient id="d" x1="360.02" y1="997.69" x2="531.87" y2="997.69" gradientUnits="userSpaceOnUse"><stop offset="0" stop-color="#09c"/><stop offset="1" stop-color="#d6ecfd" stop-opacity=".9"/></linearGradient><linearGradient id="e" x1="364.58" y1="1066.05" x2="536.43" y2="1066.05" gradientUnits="userSpaceOnUse"><stop offset="0" stop-color="#fee4e4" stop-opacity=".9"/><stop offset="1" stop-color="#ed7d04"/></linearGradient></defs><path class="g" d="M1746.27,985.52c-.07-25.41-20.69-45.97-46.1-45.97H908.27c-7.11,0-13.32-4.86-15.02-11.76l-99.07-400.5c-14.27-57.73-96.43-57.47-110.33,.35l-2.95,12.27c-.24,1-1.64,1.06-1.96,.08l-4.81-14.46c-19.51-58.79-104.6-52.58-115.38,8.42l-46.91,265.66c-2.1,11.89-12.46,20.51-24.53,20.42l-193.91-1.54c-24.01-.2-43.62,19.12-43.81,43.13l-2.55,333.24c-.17,22.91,18.39,41.56,41.31,41.49l114.29-.34c14.94-.04,25.95,13.97,22.36,28.49l-28.54,115.43c-5.45,22.04,11.18,43.37,33.89,43.47l195.7,.79c7.81,.03,14.87,4.67,18,11.82l18.3,41.92c5.13,11.76,16.75,19.37,29.58,19.36l280.31-.16c24.33-.02,42.2-22.83,36.4-46.46l-33.5-136.14c-3-12.24,6.26-24.06,18.86-24.06h708.7c24.54,0,44.41-19.93,44.34-44.48l-.76-260.46Zm-55.17,241.16c0,6.71-5.44,12.15-12.15,12.15H941.32c-18.29,0-31.79,17.07-27.56,34.86l37.31,157.09c1.94,8.17-4.26,16-12.66,15.99l-220.04-.22c-6.79-.01-12.81-4.35-14.95-10.79l-18.4-55.2c-2.22-6.66-8.46-11.14-15.48-11.14h-188.31c-12.98,0-22.68-11.91-20.07-24.61l26.39-128.42c3.41-16.56-9.24-32.06-26.14-32.06h-152.6c-6.7,0-12.13-5.41-12.15-12.11l-.95-289.1c-.02-6.85,5.53-12.42,12.38-12.42h220.23c10.56,0,19.6-7.57,21.45-17.98,10.16-57.17,41.65-234.99,52.34-301.83,4.12-25.71,30.85-31.88,40.1,1.03,11.29,40.14,34.78,163.13,34.78,163.13,.92,4.23,6.99,4.1,7.72-.16l28.45-167.08c3.49-22.02,27.8-22.73,32.91-1.03l105.74,434.76c1.31,5.56,6.26,9.48,11.96,9.48h815.14c6.73,0,12.17,5.44,12.17,12.16v223.51Z"/><path class="h" d="M1668.96,1028.34v176.93c0,4.11-3.33,7.43-7.43,7.43l-744.31-.43c-22.22-.01-38.54,20.84-33.21,42.4l37.51,151.53c1.75,7.07-3.61,13.88-10.9,13.85l-177.15-.92c-4.76-.02-8.89-3.32-9.96-7.98l-9.54-41.53c-3.59-15.62-17.48-26.69-33.51-26.71l-173.17-.23c-6.07-.01-10.65-5.54-9.53-11.49l23.87-127.2c4.39-23.42-13.52-45.09-37.34-45.17l-155.18-.57c-3.67-.01-6.65-3-6.65-6.68l.48-243.23c.01-6.06,4.93-10.97,10.99-10.97h210.66c17.05,0,31.65-12.2,34.68-28.98l47.04-260.92c.5-2.82,4.51-2.91,5.15-.12l51.15,222.62,45.99-209.09c.98-4.41,7.24-4.51,8.34-.11l93.93,376.65c3.28,13.17,15.11,22.41,28.68,22.41h800.88c4.7,0,8.52,3.82,8.52,8.52Z"/><path class="k" d="M1678.93,991.01H863.79c-5.7,0-10.65-3.92-11.96-9.48l-105.74-434.76c-5.1-21.7-29.42-20.99-32.91,1.03l-28.45,167.08c-.73,4.26-6.8,4.39-7.72,.16,0,0-23.49-122.99-34.78-163.13-9.25-32.91-35.99-26.73-40.1-1.03-10.69,66.84-42.18,244.65-52.34,301.83-1.84,10.4-10.89,17.98-21.45,17.98h-220.23c-6.85,0-12.4,5.57-12.38,12.42l.95,289.1c.02,6.7,5.45,12.11,12.15,12.11h152.6c16.9,0,29.54,15.51,26.14,32.06l-26.39,128.42c-2.61,12.71,7.09,24.61,20.07,24.61h188.31c7.02,0,13.25,4.49,15.48,11.14l18.4,55.2c2.14,6.44,8.16,10.78,14.95,10.79l220.04,.22c8.4,.01,14.6-7.82,12.66-15.99l-37.31-157.09c-4.23-17.79,9.27-34.86,27.56-34.86h737.64c6.71,0,12.15-5.44,12.15-12.15v-223.51c0-6.72-5.44-12.16-12.17-12.16Zm-13.06,213.24c0,4.11-3.33,7.43-7.43,7.43l-744.31-.43c-22.22-.01-38.54,20.84-33.21,42.4l37.51,151.53c1.75,7.07-3.61,13.88-10.9,13.85l-177.15-.92c-4.76-.02-8.89-3.32-9.96-7.98l-9.54-41.53c-3.59-15.62-17.48-26.69-33.51-26.71l-173.17-.23c-6.07-.01-10.65-5.54-9.53-11.49l23.87-127.2c4.39-23.42-13.52-45.09-37.34-45.17l-155.18-.57c-3.67-.01-6.65-3-6.65-6.68l.48-243.23c.01-6.06,4.93-10.97,10.99-10.97h210.66c17.05,0,31.65-12.2,34.68-28.98l47.04-260.92c.5-2.82,4.51-2.91,5.15-.12l51.15,222.62,45.99-209.09c.98-4.41,7.24-4.51,8.34-.11l93.93,376.65c3.28,13.17,15.11,22.41,28.68,22.41h800.88c4.7,0,8.52,3.82,8.52,8.52v176.93Z"/><path class="l" d="M440.29,941.61h0s-66.89,0-66.89,0c-7.39,0-13.38,5.99-13.38,13.38v92.61c0,3.41,2.76,6.17,6.17,6.17h67.92c3.41,0,6.17-2.76,6.17-6.17v-48.38c0-3.4,2.75-6.17,6.16-6.17l77.31-.2c4.49-.01,8.12-3.65,8.12-8.14v-34.92c0-4.49-3.64-8.14-8.14-8.14l-83.45-.04Z"/><path class="j" d="M456.16,1122.13h0s66.89,0,66.89,0c7.39,0,13.38-5.99,13.38-13.38v-92.61c0-3.41-2.76-6.17-6.17-6.17h-67.92c-3.41,0-6.17,2.76-6.17,6.17v48.38c0,3.4-2.75,6.17-6.16,6.17l-79.27,.2c-3.4,0-6.16,2.77-6.16,6.17v38.84c0,3.41,2.76,6.17,6.17,6.17l85.41,.04Z"/><g><path class="k" d="M1627.8,1071.27s-84.14-21.13-113.19,7.2c-16.88,16.46-10.52,34.54-2.06,42.19,9.87,8.92,37.05,16.46,50.42,17.49,4.62,.36,20.01,9.26-3.09,12.35-17.37,2.32-39.18-3.09-56.6-6.17l-1.03,24.7s53.46,6.75,70.24,5.15c87.01-8.34,51.19-56.6,27.52-60.71-10.58-1.84-28.81-6.17-34.99-7.2-6.09-1.02-19.08-7.2,0-13.38,10.48-3.39,32.93-3.09,62.77,5.15v-26.76Z"/><path class="k" d="M1492.77,1168.67l-33.93-100.88c-.54-1.62-1.98-2.71-3.59-2.73l-75.66-.96c-1.65-.02-3.13,1.08-3.69,2.74l-33.94,101.84c-.89,2.68,.97,5.49,3.64,5.49h46.43c1.56,0,2.96-.99,3.56-2.52l3.91-9.91c.6-1.51,1.98-2.5,3.51-2.52l33.92-.45c1.6-.02,3.04,1.01,3.63,2.59l3.84,10.23c.59,1.56,2.01,2.59,3.59,2.59h41.14c2.67,0,4.54-2.82,3.64-5.51Zm-64.65-36.69h-14.88c-2.39,0-4.2-2.28-3.81-4.79l4.16-26.76c.31-1.99,1.92-3.44,3.81-3.44h5.52c1.83,0,3.41,1.37,3.78,3.28l5.2,26.76c.5,2.55-1.33,4.95-3.78,4.95Z"/><path class="k" d="M1313.94,1122.95c-6.15-.61-9.22-7.1,0-8.46,27.78-4.12,22.64-49.39-7.77-49.39h-115.4v104.96c0,2.27,1.84,4.12,4.12,4.12h85.11c7.01,0,22.64-2.06,33.96-3.66,25.71-3.64,28.81-44.71,0-47.56Zm-47.34,27.56h-20.58c-1.14,0-2.06-.92-2.06-2.06v-14.41c0-1.14,.92-2.06,2.06-2.06h20.58c13.49,0,14.41,18.52,0,18.52Zm0-38.07h-20.58c-1.14,0-2.06-.92-2.06-2.06v-14.41c0-1.14,.92-2.06,2.06-2.06h20.58c13.49,0,14.41,18.52,0,18.52Z"/><path class="k" d="M1170.99,1168.67l-36.16-100.88c-.58-1.62-2.11-2.71-3.83-2.73l-80.64-.96c-1.76-.02-3.34,1.08-3.93,2.74l-36.17,101.84c-.95,2.68,1.04,5.49,3.88,5.49h49.48c1.66,0,3.15-.99,3.79-2.52l4.16-9.91c.63-1.51,2.11-2.5,3.74-2.52l36.15-.45c1.7-.02,3.24,1.01,3.87,2.59l4.09,10.23c.63,1.56,2.14,2.59,3.82,2.59h43.85c2.85,0,4.84-2.82,3.87-5.51Zm-68.9-36.69h-15.86c-2.54,0-4.48-2.28-4.06-4.79l4.43-26.76c.33-1.99,2.05-3.44,4.06-3.44h5.89c1.95,0,3.64,1.37,4.03,3.28l5.54,26.76c.53,2.55-1.42,4.95-4.03,4.95Z"/><path class="k" d="M964.07,1137.13c-3.09-4.12-4.12-11.32,3.09-11.32,33.96,0,37.05-58.66-4.12-59.68-22.37-.56-91.44-.92-109.07-1.01-2.28-.01-4.13,1.83-4.13,4.12v100.83c0,2.27,1.84,4.12,4.12,4.12h50.74c2.14,0,3.93-1.65,4.1-3.78l.6-28.26c.04-1.96,2.54-2.76,3.71-1.18l23.35,31.56c.78,1.05,2,1.67,3.31,1.67h55.38c1.83,0,2.75-2.2,1.47-3.5-8.68-8.77-30.76-31.16-32.55-33.54Zm-29.88-18.9c-6.68-.18-26.72,0-26.72,0v-22.26h27.33c13.83,0,13.83,22.64-.61,22.26Z"/></g><g><path class="i" d="M559.66,984.83h29.47l-8.3,48.6-21.22-.19c-2.26-.02-4.08-1.86-4.08-4.12v-40.17c0-2.27,1.84-4.12,4.12-4.12Z"/><path class="i" d="M611.31,1035.16c16.26,6.27,56.4,30.97,67.24,57.75,.18,.44,7.68-44.27,7.64-44.43-5.11-22.48-38.04-41-67.88-58.5l-7,45.18"/><path class="i" d="M821.17,1141.55h8.75c2.27,0,4.12-1.84,4.12-4.12v-41.18c0-2.27-1.84-4.12-4.12-4.12h-20.83"/><path class="i" d="M780.92,1088.58c-.79-.3-1.6-.15-2.4-.3-24.38-4.65-62.53-18.48-62.53-18.48-6.3-9.09-22.41,39.26-12.27,43.67,23.67,10.29,57.63,19.55,86.99,24.13"/></g><path class="f" d="M851.9,1385.13h28.81l-148.18-606.1-44.56,259.07-63.44-260.62-88.1,516.07h31.46l62.77-373.54,19.55,89.53s31.73,18.43,35.98,38.94l-7.64,44.43s-6.73-15.46-12.9-18.54l6.17,51.45-27.78,167.73h31.9l16.46-104.96,50.42,196.55h29.84l-63.8-270.64,29.84-187.29,113.19,457.92Z"/></svg>