<?xml version="1.0" encoding="UTF-8"?><svg id="a" xmlns="http://www.w3.org/2000/svg" xmlns:xlink="http://www.w3.org/1999/xlink" viewBox="0 0 2000 2000"><defs><style>.c{fill:#fff;}.c,.d{fill-rule:evenodd;}.e{fill:none;}.d{fill:url(#b);}</style><linearGradient id="b" x1="991.57" y1="1368" x2="991.57" y2="634" gradientTransform="translate(0 2001) scale(1 -1)" gradientUnits="userSpaceOnUse"><stop offset="0" stop-color="#00aeef"/><stop offset=".21" stop-color="#0097dc"/><stop offset=".52" stop-color="#007cc5"/><stop offset=".79" stop-color="#006cb8"/><stop offset="1" stop-color="#0066b3"/></linearGradient></defs><path class="d" d="M250,1367H999.58l733.57-734H250v734"/><path class="c" d="M1130.17,779.8h-146.48l.49,344.65-127.55-344.77h-126.47l-108.88,287.94c-11.58-73.27-87.29-98.55-146.87-117.49-39.34-12.64-81.1-31.24-80.67-51.79,.33-16.87,22.34-32.51,66.08-30.18,29.35,1.58,55.27,3.95,106.84,28.87l50.71-88.41c-47.02-23.94-112.04-39.07-165.36-39.11h-.33c-62.17,0-113.93,20.14-146.02,53.34-22.37,23.16-34.43,52.62-34.92,85.19-.82,44.82,15.6,76.6,50.1,101.99,29.15,21.37,66.44,35.23,99.29,45.41,40.52,12.56,73.61,23.49,73.21,46.75-.33,8.48-3.52,16.41-9.62,22.8-10.11,10.44-25.6,14.35-47.04,14.78-41.36,.88-72.02-5.63-120.86-34.51l-45.11,89.55c48.8,27.76,100.6,41.69,159.46,41.69l13.24-.1c51.23-.93,92.8-13.21,125.84-39.8,1.89-1.52,3.59-3.05,5.35-4.6l-5.54,28.58,123.59-.39,22.17-56.8c23.32,7.96,49.83,12.36,77.97,12.36s53.22-4.18,76.09-11.68l15.46,56.11,221.74,.21,.54-129.48h47.18c114.05,0,181.47-58.07,181.47-155.44-.03-108.45-65.58-155.69-205.08-155.69Zm-337.4,294.61c-17.04,0-33.02-2.97-46.76-8.19l46.24-146.07h.9l45.49,146.47c-13.7,4.89-29.3,7.78-45.88,7.78h.02Zm345.98-83.92h-32.18v-117.72h32.2c42.88,0,77.12,14.29,77.12,58.1-.03,45.34-34.24,59.62-77.12,59.62"/><path class="e" d="M250,633H1750v734H250V633Z"/></svg>