<?xml version="1.0" encoding="UTF-8"?><svg id="a" xmlns="http://www.w3.org/2000/svg" viewBox="0 0 98 98"><path d="M77.86,37.26l-11.75-2.94-4.9-5.88v-1.47c0-3.43-1.96-5.88-5.39-6.37l-12.73-.98v1.47c1.96,0,3.92,.98,5.39,2.45,2.94,2.94,2.94,7.84,0,11.26l-6.37,7.35v3.43c0,2.94-1.96,5.39-4.41,6.86v2.45h0l.98,16.65-9.31,19.59c-.98,2.45,0,5.39,2.45,6.37,2.45,.98,5.39,0,6.37-2.45l9.8-20.57c.49-.49,.49-1.47,.49-2.45l-.98-16.65h1.96l5.39,15.67,1.47,22.53c0,2.94,2.45,4.41,4.9,4.41s4.41-2.45,4.41-4.9l-1.96-23.02v-.98l-3.92-12.24h0l.49-17.63,.98,.98c.49,.49,.98,.98,1.96,1.47l12.73,2.94c1.96,.49,4.41-.98,4.9-2.94,.49-1.96-.98-3.92-2.94-4.41h0Z"/><path d="M31.33,49.02l5.39-13.22,8.33-4.41-2.45,1.96-.49,4.9,4.9-5.39c1.96-1.96,1.96-5.39,0-7.84h0c-1.47-1.47-3.43-1.96-5.39-.98l-9.31,5.39c-.98,.49-1.47,.98-1.96,1.96l-6.37,14.69c-.98,1.96,0,4.41,1.96,4.9,2.45,.98,4.9,0,5.39-1.96h0Z"/><path d="M32.8,51.47c3.92,0,6.37-2.45,6.86-5.88l.49-9.8-.98,.49-5.88,13.71c0,.49,0,.98-.49,1.47Z"/><path d="M28.39,30.41c.49-.49,.49-2.45,2.94-2.94l9.8-3.43v-1.96c0-3.43-1.96-5.88-5.39-6.37-7.35-.49-6.86-.49-7.35-.49-2.94,0-5.39,2.45-5.88,5.39l-.98,15.67c-2.45,.98-3.92,2.94-4.41,5.39v1.47c0,2.94,1.96,5.39,4.9,5.88-.49-1.47-.49-2.94,0-3.92l6.37-14.69Z"/><path d="M51.9,17.18c4.9,.49,8.82-3.43,9.31-7.84C61.21,4.45,57.78,.53,52.88,.04s-8.82,3.43-8.82,7.84c-.49,4.9,2.94,8.82,7.84,9.31Z"/></svg>