<?xml version="1.0" encoding="UTF-8"?><svg id="a" xmlns="http://www.w3.org/2000/svg" viewBox="0 0 2000 2000"><defs><style>.b{fill:#f4f4f5;}.c{fill:#f90805;}.d{fill:#0437a0;}</style></defs><path class="d" d="M433.33,500h441.67v291.67L433.33,500Zm691.67,0h441.67l-441.67,291.67V500h0Zm625,125v208.33h-316.67l316.67-208.33h0Zm0,541.67v208.33l-316.67-208.33h316.67Zm-183.33,333.33h-441.67v-291.67l441.67,291.67Zm-691.67,0H433.33l441.67-291.67v291.67Zm-625-125v-208.33h316.67l-316.67,208.33h0Zm0-541.67v-208.33l316.67,208.33H250Z"/><polygon class="b" points="1750 1375 1433.33 1166.67 1750 1166.67 1750 833.33 1433.33 833.33 1750 625 1750 500 1566.67 500 1125 791.67 1125 500 1000 500 875 500 875 791.67 433.33 500 250 500 250 625 566.67 833.33 250 833.33 250 1166.67 566.67 1166.67 250 1375 250 1500 433.33 1500 875 1208.33 875 1500 1000 1500 1125 1500 1125 1208.33 1566.67 1500 1750 1500 1750 1375"/><path class="c" d="M1075,500v400h675v208.33h-675v391.67h-150v-400H250v-200H925V500h150Zm675,950l-433.33-283.33h-141.67l500,333.33h75v-50Zm-433.33-616.67l433.33-283.33v-50h-66.67l-500,333.33h133.33Zm-491.67,0L325,500h-75v50l433.33,283.33h141.67Zm-141.67,333.33l-433.33,283.33v50h66.67l500-333.33h-133.33Z"/></svg>